<?xml version="1.0" standalone="no"?>
<!DOCTYPE svg PUBLIC "-//W3C//DTD SVG 20010904//EN"
 "http://www.w3.org/TR/2001/REC-SVG-20010904/DTD/svg10.dtd">
<svg version="1.0" xmlns="http://www.w3.org/2000/svg"
 width="1024.000000pt" height="1024.000000pt" viewBox="0 0 1024.000000 1024.000000"
 preserveAspectRatio="xMidYMid meet">

<g transform="translate(0.000000,1024.000000) scale(0.100000,-0.100000)"
fill="#000000" stroke="none">
<path d="M5310 8974 c-19 -2 -91 -9 -160 -14 -654 -56 -1331 -306 -1871 -692
-304 -218 -660 -574 -836 -836 -84 -125 -57 -147 150 -121 l89 12 72 76 c40
42 107 115 149 162 156 176 391 377 627 535 472 315 1012 511 1595 579 152 18
582 20 750 5 227 -21 558 -94 793 -175 440 -150 869 -407 1194 -713 48 -45 99
-84 113 -88 29 -7 117 15 203 52 81 35 76 48 -80 200 -146 142 -291 262 -426
353 -591 397 -1198 610 -1887 661 -129 9 -392 11 -475 4z"/>
<path d="M9268 7645 c-15 -9 -34 -28 -42 -43 -18 -36 -72 -208 -201 -647 -187
-634 -258 -870 -264 -878 -4 -4 -13 50 -20 120 -7 71 -41 389 -76 707 l-64
579 -29 36 c-42 52 -102 83 -176 88 -72 6 -124 -7 -153 -40 -11 -12 -35 -65
-52 -117 -451 -1327 -528 -1541 -678 -1878 -62 -141 -74 -201 -49 -250 47 -92
213 -145 298 -95 38 22 41 28 222 528 140 385 181 500 262 738 31 92 58 166
61 164 4 -5 11 -61 83 -727 28 -256 53 -473 56 -482 10 -33 83 -87 140 -104
122 -35 255 19 294 121 22 55 488 1398 642 1849 38 110 35 148 -20 225 -66 95
-171 142 -234 106z"/>
<path d="M7659 7506 c-78 -28 -132 -83 -147 -152 -12 -53 -2 -75 63 -145 59
-65 70 -96 63 -183 -6 -70 -37 -130 -107 -210 -63 -71 -87 -116 -77 -142 5
-14 16 -16 68 -10 159 16 272 125 353 340 56 150 72 323 36 401 -42 94 -151
137 -252 101z"/>
<path d="M5775 7252 c-82 -28 -146 -71 -220 -146 -88 -90 -127 -165 -133 -258
-3 -56 -1 -73 17 -101 29 -47 81 -70 169 -75 66 -4 79 -1 137 27 145 72 275
277 275 436 0 52 -4 66 -25 89 -13 14 -36 31 -50 36 -39 15 -114 11 -170 -8z"/>
<path d="M2488 7045 c-196 -37 -414 -132 -568 -249 -102 -77 -260 -237 -319
-324 -94 -139 -133 -275 -101 -352 27 -66 137 -130 196 -116 44 11 85 59 130
152 86 177 320 402 519 499 128 63 222 85 366 85 178 0 287 -42 375 -143 140
-161 162 -460 58 -782 -37 -116 -144 -325 -222 -435 -128 -181 -342 -370 -517
-457 -112 -56 -279 -103 -297 -85 -13 13 67 246 328 949 107 287 194 527 194
534 0 31 -44 100 -76 120 -29 18 -46 21 -112 17 -110 -5 -149 -27 -186 -102
-51 -107 -350 -876 -451 -1161 -134 -379 -137 -523 -14 -628 56 -49 116 -68
229 -74 318 -17 743 190 1071 520 258 260 415 527 502 856 29 109 31 127 31
301 0 173 -2 190 -27 273 -95 306 -297 504 -602 587 -105 29 -389 37 -507 15z"/>
<path d="M6844 6614 c-23 -8 -58 -29 -78 -47 -34 -31 -37 -38 -65 -182 -54
-271 -134 -511 -241 -725 -96 -192 -187 -300 -253 -300 -107 0 -114 162 -20
454 37 116 98 261 187 449 62 130 69 171 33 205 -32 30 -103 60 -162 67 -122
16 -183 -35 -280 -239 -35 -72 -84 -185 -110 -251 -117 -299 -338 -666 -448
-746 -47 -34 -92 -38 -107 -10 -29 55 2 252 70 446 34 95 115 296 174 430 20
44 36 94 36 111 0 81 -95 147 -221 152 -74 4 -77 3 -113 -29 -57 -50 -122
-188 -237 -506 -110 -306 -292 -609 -423 -705 -45 -32 -76 -36 -99 -10 -47 51
4 216 185 597 83 174 101 220 105 271 5 57 4 62 -27 97 -36 41 -114 81 -238
122 -108 35 -143 66 -177 155 -45 118 -135 177 -230 150 -54 -15 -128 -77
-155 -131 -39 -76 -19 -212 42 -276 l21 -22 -23 -63 c-93 -258 -215 -503 -417
-841 -75 -125 -86 -157 -73 -207 17 -61 98 -120 167 -120 55 0 89 32 113 107
13 37 63 154 112 258 96 202 204 451 283 653 52 131 53 132 116 111 41 -14 69
-37 69 -56 0 -8 -27 -72 -59 -141 -117 -253 -171 -433 -171 -578 0 -139 50
-228 158 -281 105 -52 249 -35 380 44 74 45 157 124 218 206 l43 57 15 -54
c21 -70 68 -132 131 -171 45 -28 55 -30 145 -30 91 0 100 2 172 38 93 46 209
151 288 261 l54 76 13 -52 c25 -95 84 -172 166 -215 42 -22 170 -29 239 -13
339 81 651 498 870 1164 77 234 79 253 40 297 -28 32 -34 34 -103 36 -47 2
-89 -3 -115 -13z"/>
<path d="M9277 5733 c-13 -21 -39 -67 -56 -100 -17 -34 -53 -99 -80 -145 l-48
-83 -7 -200 c-6 -216 -24 -399 -57 -593 -190 -1136 -943 -2163 -1961 -2673
-560 -281 -1263 -414 -1875 -355 -719 69 -1318 309 -1866 748 -20 15 -16 16
64 11 89 -6 237 14 327 43 89 29 267 124 354 188 48 36 137 113 197 172 94 90
111 103 111 83 1 -37 43 -132 84 -187 85 -116 239 -166 391 -127 103 27 172
72 281 180 115 114 166 184 244 338 l55 108 80 33 c44 18 100 45 123 60 24 15
46 25 48 23 3 -2 0 -33 -6 -68 -23 -145 -8 -296 40 -390 70 -137 225 -205 381
-169 193 45 400 250 529 524 l48 102 74 28 c40 15 106 48 147 72 50 30 71 38
66 26 -23 -56 -61 -173 -91 -281 -42 -154 -46 -241 -11 -291 62 -94 203 -97
271 -7 11 15 46 105 77 200 53 158 59 170 68 144 68 -178 145 -276 259 -330
57 -27 78 -32 143 -32 70 0 84 4 163 43 136 68 261 199 355 372 45 83 50 109
24 132 -44 39 -62 34 -122 -33 -84 -95 -145 -150 -213 -191 -50 -31 -71 -38
-113 -38 -92 0 -167 67 -213 191 l-21 57 89 20 c316 74 620 393 620 650 0 202
-161 288 -357 192 -54 -27 -94 -59 -194 -159 -69 -69 -149 -157 -178 -195 -28
-38 -51 -64 -51 -59 0 13 145 354 275 648 207 469 219 501 195 545 -12 23 -61
40 -114 40 -53 0 -135 -38 -169 -80 -102 -121 -407 -748 -545 -1119 -48 -131
-116 -201 -286 -292 -76 -41 -79 -42 -73 -18 54 200 16 416 -91 510 -100 87
-279 93 -448 13 -70 -33 -194 -150 -269 -255 -119 -165 -177 -231 -256 -293
-81 -64 -176 -122 -185 -113 -3 3 -1 31 5 63 22 117 7 276 -35 355 -77 149
-270 215 -457 156 -98 -32 -169 -80 -269 -186 -152 -159 -251 -327 -320 -540
l-33 -103 -105 -102 c-116 -111 -243 -205 -390 -290 -143 -81 -255 -107 -379
-86 -103 17 -167 59 -206 134 -30 59 -30 61 -30 220 1 177 12 246 71 448 99
341 249 614 443 810 82 82 121 114 171 137 73 35 98 38 144 16 47 -22 66 -70
66 -164 0 -131 -46 -275 -141 -442 -27 -48 -49 -96 -49 -107 0 -29 45 -79 94
-104 49 -25 138 -28 182 -5 84 43 165 180 211 356 31 118 42 327 23 423 -34
173 -147 292 -312 328 -90 20 -237 8 -335 -27 -139 -50 -234 -114 -368 -248
-189 -188 -320 -392 -433 -677 -66 -166 -98 -276 -134 -469 -19 -103 -23 -157
-23 -321 0 -108 -3 -194 -6 -192 -18 11 -186 213 -255 306 -243 329 -444 745
-548 1133 -33 124 -53 145 -129 145 -29 -1 -74 -9 -102 -18 -72 -25 -76 -42
-35 -188 144 -521 357 -942 681 -1350 771 -967 1896 -1503 3084 -1471 871 24
1622 299 2285 835 144 117 466 442 581 587 304 382 526 776 680 1208 157 438
228 922 216 1472 -5 224 -17 348 -37 369 -5 4 -19 -9 -33 -31z m-1344 -1847
c-4 -61 -130 -215 -248 -303 -48 -36 -153 -93 -171 -93 -8 0 100 146 162 220
108 129 204 213 238 208 16 -2 21 -10 19 -32z m-1411 -107 c28 -37 36 -122 21
-213 -19 -113 -24 -120 -84 -113 -66 8 -117 34 -134 68 -37 71 -3 206 67 264
41 35 102 32 130 -6z m-1277 -123 c42 -42 55 -129 35 -237 -18 -96 -27 -109
-74 -109 -50 0 -122 35 -149 71 -47 64 -26 179 47 255 35 37 49 44 80 44 26 0
44 -7 61 -24z m950 -334 c48 -53 111 -86 187 -97 l47 -7 -26 -52 c-96 -192
-242 -331 -328 -314 -58 11 -79 122 -50 273 14 79 77 293 93 320 3 5 12 -10
20 -33 7 -23 33 -64 57 -90z m-1248 -142 c50 -45 126 -80 173 -80 51 0 56 -14
25 -67 -111 -191 -229 -303 -317 -303 -126 0 -132 205 -17 525 l32 88 27 -59
c17 -38 44 -75 77 -104z"/>
</g>
</svg>
