<?xml version="1.0" standalone="no"?>
<!DOCTYPE svg PUBLIC "-//W3C//DTD SVG 20010904//EN"
 "http://www.w3.org/TR/2001/REC-SVG-20010904/DTD/svg10.dtd">
<svg version="1.0" xmlns="http://www.w3.org/2000/svg"
 width="1024.000000pt" height="1024.000000pt" viewBox="0 0 1024.000000 1024.000000"
 preserveAspectRatio="xMidYMid meet">

<g transform="translate(0.000000,1024.000000) scale(0.100000,-0.100000)"
fill="#000000" stroke="none">
<path d="M0 5120 l0 -5120 5120 0 5120 0 0 5120 0 5120 -5120 0 -5120 0 0
-5120z m5767 4049 c836 -68 1614 -396 2269 -955 66 -56 157 -141 203 -189 82
-85 83 -87 64 -107 -10 -11 -36 -30 -58 -43 -45 -26 -182 -71 -204 -66 -8 1
-64 48 -125 104 -528 480 -1155 788 -1856 911 -235 41 -357 50 -645 50 -290 0
-442 -13 -686 -59 -812 -150 -1559 -565 -2096 -1167 -211 -237 -221 -243 -376
-243 -74 0 -80 2 -103 28 -13 15 -24 34 -24 41 0 24 95 160 201 287 454 545
1083 973 1779 1210 289 99 694 182 990 202 116 8 552 6 667 -4z m3823 -1460
c89 -40 170 -142 170 -213 0 -19 -68 -234 -151 -478 -83 -243 -190 -560 -239
-703 -238 -705 -338 -970 -383 -1021 -57 -65 -139 -89 -251 -73 -76 10 -129
34 -168 76 -52 55 -40 -25 -168 1118 -32 286 -34 299 -43 275 -129 -339 -359
-986 -452 -1275 -76 -235 -92 -274 -132 -305 -25 -19 -36 -22 -94 -17 -119 10
-239 83 -270 164 -13 35 0 76 79 258 159 366 483 1239 708 1909 92 274 101
287 192 294 120 9 247 -50 286 -132 20 -42 24 -71 131 -1016 30 -267 57 -492
58 -500 2 -8 9 5 16 30 7 25 79 248 161 495 82 248 192 585 245 750 109 337
117 358 148 373 36 17 109 13 157 -9z m-1769 -117 c34 -17 65 -44 84 -71 28
-40 30 -49 33 -149 3 -85 -1 -125 -18 -192 -40 -157 -131 -334 -206 -399 -66
-58 -216 -121 -290 -121 -23 0 -38 8 -53 26 -12 15 -21 31 -21 37 0 6 40 49
89 96 73 70 96 100 125 161 39 82 52 148 42 206 -6 28 -24 53 -71 99 -41 40
-65 73 -70 94 -16 75 48 185 129 222 65 29 161 26 227 -9z m-1864 -268 c50
-37 67 -70 71 -137 5 -75 -18 -139 -84 -239 -54 -80 -167 -188 -232 -219 -133
-65 -278 -18 -314 102 -25 84 33 236 129 340 135 145 342 219 430 153z m-3287
-219 c214 -32 377 -111 516 -250 252 -250 328 -652 209 -1095 -159 -588 -642
-1107 -1261 -1353 -327 -131 -636 -121 -758 24 -41 49 -65 102 -72 162 -15
126 98 462 438 1312 178 444 218 519 294 551 103 43 263 -23 279 -114 7 -42
-28 -151 -140 -437 -109 -277 -223 -587 -292 -790 -61 -180 -123 -399 -123
-432 0 -25 95 -10 202 32 343 137 695 500 870 900 88 200 128 379 128 569 0
145 -18 235 -64 333 -58 122 -151 204 -279 246 -85 28 -278 29 -391 3 -105
-24 -218 -73 -308 -132 -141 -94 -343 -308 -477 -507 -78 -116 -100 -139 -154
-162 -49 -20 -90 -8 -134 38 -94 99 -95 219 -2 397 183 351 645 653 1084 709
113 14 327 12 435 -4z m4346 -461 c59 -29 70 -73 49 -189 -35 -200 -131 -477
-240 -696 -182 -365 -386 -603 -604 -707 -217 -104 -460 -6 -514 207 l-14 53
-48 -68 c-135 -190 -290 -298 -457 -319 -143 -18 -280 78 -318 222 -20 80 -20
80 -36 44 -20 -46 -207 -228 -279 -271 -187 -111 -361 -106 -481 14 -68 69
-89 130 -88 251 3 148 50 319 179 638 37 92 66 169 64 171 -2 1 -40 12 -84 24
-60 16 -81 18 -87 9 -4 -7 -29 -75 -54 -152 -62 -187 -135 -372 -232 -590
-152 -344 -204 -454 -231 -486 -24 -29 -35 -33 -87 -37 -50 -3 -65 0 -94 20
-47 32 -70 80 -70 148 1 74 26 133 140 320 136 224 219 402 350 747 l57 152
-28 27 c-68 65 -75 167 -19 281 38 76 87 119 156 134 121 27 229 -62 273 -228
16 -60 53 -85 162 -112 154 -38 252 -101 291 -188 l19 -43 -50 -112 c-230
-523 -271 -632 -271 -727 0 -64 11 -81 52 -81 70 0 130 60 262 263 164 251
193 306 254 472 76 207 175 440 215 506 46 76 75 94 150 94 74 -1 153 -34 215
-89 61 -55 60 -70 -13 -231 -179 -395 -254 -615 -270 -790 -8 -78 3 -118 35
-135 17 -9 31 -6 75 14 45 20 64 38 114 106 67 90 271 413 271 429 0 26 113
348 157 446 122 274 211 375 331 375 112 0 232 -69 232 -134 0 -15 -20 -66
-44 -114 -115 -229 -226 -543 -271 -768 -28 -134 -31 -216 -12 -254 17 -34 63
-38 107 -8 150 101 424 806 456 1174 8 96 22 126 75 161 81 54 179 64 255 27z
m2494 -946 c0 -7 7 -96 15 -198 22 -277 19 -676 -5 -885 -34 -299 -81 -539
-150 -765 -338 -1120 -1125 -2023 -2235 -2567 -713 -349 -1472 -471 -2270
-363 -297 40 -660 137 -990 265 -735 285 -1459 886 -1918 1591 -244 376 -401
730 -502 1133 -31 124 -30 161 5 178 39 20 188 17 230 -5 34 -16 36 -21 68
-142 141 -540 421 -1048 817 -1482 38 -43 73 -78 77 -78 3 0 -1 26 -10 57 -13
45 -17 101 -17 243 0 165 3 200 29 325 75 368 241 732 453 995 86 106 278 291
354 340 98 64 217 118 309 141 68 17 105 21 195 17 98 -4 118 -8 175 -35 128
-59 194 -157 232 -340 16 -80 19 -123 15 -233 -6 -162 -28 -256 -92 -385 -103
-211 -222 -274 -384 -204 -47 20 -111 77 -111 99 0 5 25 42 55 82 177 235 247
582 137 682 -27 23 -91 31 -136 16 -52 -17 -172 -98 -245 -165 -210 -195 -396
-544 -501 -940 -75 -281 -78 -502 -9 -637 30 -59 100 -130 161 -164 49 -27 61
-29 153 -28 202 1 344 80 713 399 158 135 163 141 178 195 28 103 57 175 116
290 130 256 332 461 526 533 66 24 200 29 268 9 96 -28 176 -109 216 -219 17
-47 21 -80 21 -178 -1 -66 -5 -141 -11 -167 -5 -28 -6 -48 0 -48 14 0 109 50
158 83 80 55 150 129 239 252 110 154 214 263 315 329 115 76 181 99 286 100
110 0 170 -25 239 -100 65 -71 92 -142 98 -260 5 -81 -8 -230 -24 -270 -9 -24
12 -16 93 37 118 77 181 135 211 193 14 28 68 166 119 306 128 353 230 587
349 795 109 194 184 288 259 327 31 16 53 19 109 16 61 -3 72 -7 93 -31 44
-52 38 -75 -126 -447 -62 -140 -152 -356 -202 -480 -49 -124 -109 -273 -133
-332 -24 -60 -40 -108 -35 -108 6 0 10 4 10 9 0 21 161 223 244 307 210 210
430 265 528 133 31 -41 44 -139 30 -221 -51 -298 -330 -572 -667 -655 -73 -18
-72 -9 -11 -132 64 -126 121 -173 208 -173 70 1 122 35 263 172 66 65 130 122
142 129 34 17 78 13 98 -9 17 -19 18 -26 6 -68 -28 -109 -149 -279 -267 -376
-282 -233 -577 -198 -713 84 -22 44 -45 103 -52 130 -7 28 -15 50 -19 50 -3 0
-21 -46 -39 -102 -46 -142 -98 -267 -127 -306 -36 -46 -73 -62 -146 -62 -79 0
-122 24 -148 83 -38 82 -23 190 69 507 17 57 29 105 28 106 -1 2 -58 -25 -127
-59 l-125 -62 -45 -95 c-67 -141 -172 -293 -270 -390 -89 -89 -158 -135 -261
-177 -55 -22 -74 -25 -158 -21 -77 3 -107 9 -153 30 -114 53 -186 147 -214
280 -17 80 -13 138 17 262 11 44 17 81 15 83 -2 2 -39 -12 -82 -30 -44 -19
-97 -40 -118 -48 -36 -13 -43 -22 -75 -95 -89 -198 -212 -374 -326 -467 -33
-27 -98 -67 -145 -90 l-85 -42 -125 0 c-110 0 -131 3 -172 23 -104 51 -188
161 -204 268 -3 24 -8 44 -11 44 -2 0 -50 -42 -107 -93 -272 -245 -414 -334
-627 -391 -148 -39 -291 -43 -449 -10 -25 5 -25 5 4 -18 142 -113 405 -278
626 -390 421 -216 893 -353 1360 -398 170 -17 655 -8 810 14 806 115 1533 471
2161 1059 242 226 394 404 573 675 225 340 379 672 490 1056 104 360 165 801
166 1195 l0 134 56 101 c142 254 183 316 184 274z"/>
<path d="M7929 3691 c-66 -45 -183 -168 -313 -331 -64 -80 -116 -148 -116
-152 0 -15 28 -7 106 31 99 48 182 110 267 200 99 106 159 220 137 261 -14 27
-29 25 -81 -9z"/>
<path d="M6365 3542 c-61 -38 -115 -145 -115 -231 0 -45 16 -81 50 -109 31
-25 106 -60 146 -66 l41 -7 16 53 c27 86 39 168 32 217 -9 60 -43 139 -66 151
-28 15 -71 12 -104 -8z"/>
<path d="M5018 3372 c-25 -26 -53 -69 -63 -95 -23 -60 -17 -142 13 -185 25
-35 88 -67 149 -77 l41 -6 21 56 c23 62 29 192 11 257 -16 57 -55 98 -95 98
-26 0 -41 -10 -77 -48z"/>
<path d="M6056 3116 c-67 -161 -116 -346 -118 -441 -1 -90 19 -139 65 -161
100 -48 232 62 355 295 60 114 60 117 13 124 -92 12 -204 89 -278 192 l-21 29
-16 -38z"/>
<path d="M4747 3034 c-3 -11 -18 -50 -32 -89 -45 -120 -75 -236 -85 -329 -19
-184 31 -256 154 -225 86 21 188 137 265 300 61 129 61 129 8 129 -118 0 -257
94 -292 198 -10 27 -13 30 -18 16z"/>
</g>
</svg>
