<?xml version="1.0" standalone="no"?>
<!DOCTYPE svg PUBLIC "-//W3C//DTD SVG 20010904//EN"
 "http://www.w3.org/TR/2001/REC-SVG-20010904/DTD/svg10.dtd">
<svg version="1.0" xmlns="http://www.w3.org/2000/svg"
 width="500.000000pt" height="500.000000pt" viewBox="0 0 500.000000 500.000000"
 preserveAspectRatio="xMidYMid meet">

<g transform="translate(0.000000,500.000000) scale(0.100000,-0.100000)"
fill="#000000" stroke="none">
<path d="M2519 4376 c-2 -2 -34 -6 -71 -10 -248 -23 -563 -139 -788 -290 -41
-27 -97 -67 -125 -89 -160 -126 -380 -374 -360 -407 3 -5 34 -10 67 -10 l61 0
116 121 c199 209 386 336 641 437 328 130 732 153 1070 63 127 -35 117 -31
220 -74 176 -73 348 -181 470 -294 62 -57 74 -65 100 -60 45 10 100 35 100 47
0 15 -112 121 -205 194 -249 194 -546 318 -869 361 -96 13 -416 21 -427 11z"/>
<path d="M4517 3723 c-20 -23 -114 -322 -207 -658 -33 -120 -32 -120 -45 -5
-7 58 -18 164 -24 235 -7 72 -17 152 -22 178 -5 26 -9 70 -9 96 0 75 -16 107
-64 130 -23 12 -50 21 -59 21 -30 0 -66 -23 -76 -49 -9 -22 -110 -319 -181
-531 -36 -107 -74 -207 -128 -335 -68 -162 -73 -192 -38 -226 27 -27 79 -42
115 -32 16 4 61 76 61 99 0 3 22 65 49 137 27 73 72 202 101 287 29 85 57 159
61 164 8 9 13 -22 29 -189 6 -60 15 -141 20 -180 5 -38 12 -100 15 -137 9 -98
43 -127 140 -120 30 3 60 24 76 54 8 15 104 285 159 448 10 30 53 154 94 274
42 121 76 232 76 248 0 19 -12 40 -40 68 -44 44 -77 51 -103 23z"/>
<path d="M3714 3651 c-17 -10 -36 -33 -44 -50 -12 -29 -11 -34 24 -78 52 -67
48 -118 -19 -196 -61 -72 -37 -98 52 -58 78 36 143 167 143 288 0 47 -4 59
-29 84 -35 35 -81 38 -127 10z"/>
<path d="M2814 3539 c-38 -11 -129 -90 -149 -130 -19 -36 -19 -113 -1 -128 27
-23 79 -32 116 -20 109 35 205 226 138 273 -25 18 -56 19 -104 5z"/>
<path d="M1230 3443 c-98 -16 -221 -69 -295 -126 -166 -129 -250 -292 -182
-354 53 -50 102 -35 138 42 27 58 125 164 192 208 150 98 322 105 416 16 111
-105 84 -368 -60 -583 -84 -125 -206 -225 -322 -266 -67 -24 -87 -25 -87 -6 0
15 75 230 140 401 119 311 123 330 92 358 -26 23 -113 23 -140 0 -16 -15 -82
-174 -209 -508 -45 -119 -83 -254 -83 -297 0 -42 4 -52 39 -87 47 -47 104 -59
202 -41 236 43 494 250 618 497 175 345 61 674 -257 742 -51 11 -150 13 -202
4z"/>
<path d="M3330 3223 c-38 -20 -39 -21 -79 -190 -43 -178 -134 -368 -196 -409
-24 -16 -27 -16 -46 2 -19 17 -21 27 -16 84 6 74 48 200 107 321 22 46 40 91
40 101 0 26 -58 58 -106 58 -67 0 -89 -33 -193 -279 -70 -165 -189 -341 -231
-341 -53 0 -30 134 61 355 56 136 60 167 24 191 -33 22 -97 29 -125 14 -24
-13 -82 -130 -120 -240 -71 -210 -216 -408 -262 -362 -21 21 21 146 116 341
29 61 34 115 12 137 -17 16 -101 54 -120 54 -23 0 -66 40 -80 75 -35 82 -102
99 -161 40 -29 -30 -35 -43 -35 -78 0 -24 8 -56 20 -74 l19 -33 -43 -104 c-24
-57 -57 -128 -74 -158 -61 -110 -86 -154 -109 -190 -31 -51 -30 -91 3 -117 30
-23 76 -28 92 -8 5 6 13 23 17 37 4 14 32 76 61 139 30 62 54 115 54 117 0 2
8 23 19 47 48 108 71 165 71 174 0 24 23 32 51 17 35 -18 36 -22 3 -86 -82
-161 -108 -317 -63 -379 67 -94 208 -73 318 46 47 52 49 53 55 30 10 -38 52
-80 94 -94 34 -12 47 -11 93 4 56 19 145 93 177 147 l16 28 26 -52 c33 -68 74
-91 151 -85 30 3 73 14 95 25 99 50 209 184 285 347 41 88 109 283 109 314 0
43 -74 63 -130 34z"/>
<path d="M4513 2773 c-9 -21 -30 -60 -45 -86 -24 -40 -28 -59 -28 -120 0 -98
-26 -299 -54 -427 -114 -507 -484 -974 -951 -1200 -155 -75 -323 -126 -526
-159 -85 -14 -377 -14 -455 -1 -139 25 -175 34 -295 71 -141 45 -294 118 -423
204 -109 73 -120 85 -74 85 137 0 276 65 417 196 47 43 61 52 61 37 0 -37 56
-109 102 -132 56 -27 106 -27 166 1 66 30 169 140 210 222 30 61 38 69 90 93
31 15 59 28 62 30 3 2 5 -41 5 -94 0 -117 14 -150 78 -188 55 -31 111 -33 173
-3 75 35 171 145 215 246 11 26 30 42 83 69 37 19 69 33 71 31 1 -2 -8 -37
-21 -78 -14 -41 -27 -100 -31 -131 -5 -49 -3 -59 16 -78 27 -27 91 -29 115 -3
9 11 29 57 45 103 l28 84 32 -63 c51 -101 144 -146 228 -110 60 26 114 71 158
132 52 74 66 120 39 130 -13 5 -33 -8 -73 -47 -73 -71 -99 -87 -137 -87 -39 0
-68 23 -93 75 -21 43 -15 55 25 55 40 0 147 65 205 124 106 106 129 229 55
288 -67 55 -177 -6 -309 -170 -15 -19 -27 -30 -27 -26 0 6 60 149 102 244 137
306 141 317 113 340 -22 18 -92 6 -121 -21 -29 -28 -196 -362 -253 -507 -22
-57 -46 -109 -53 -116 -19 -19 -119 -86 -128 -86 -5 0 -6 35 -3 78 4 67 2 83
-19 121 -33 65 -67 86 -136 86 -107 0 -160 -35 -268 -175 -67 -88 -159 -170
-188 -170 -5 0 -6 20 -3 45 14 96 -23 189 -86 222 -46 24 -142 22 -192 -4 -94
-49 -205 -196 -247 -326 -19 -58 -31 -77 -79 -121 -62 -58 -142 -113 -217
-151 -65 -33 -161 -35 -210 -5 -51 31 -66 78 -58 181 18 264 183 581 342 657
32 15 38 15 62 1 24 -13 27 -22 30 -72 3 -63 -20 -144 -64 -220 -32 -56 -30
-73 9 -97 52 -32 84 -26 132 23 54 57 77 126 82 252 5 89 3 106 -17 149 -41
86 -136 127 -247 106 -187 -36 -374 -249 -468 -536 -34 -105 -58 -263 -51
-341 3 -35 2 -63 -2 -63 -14 0 -94 98 -162 197 -91 135 -153 262 -209 430
l-47 138 -48 -2 c-61 -2 -80 -18 -67 -59 5 -16 19 -63 31 -104 83 -278 227
-515 455 -746 176 -177 303 -271 511 -373 127 -63 131 -65 209 -91 167 -58
323 -87 510 -96 548 -26 1049 175 1424 572 153 162 259 316 357 519 100 209
133 320 174 586 11 71 14 457 4 483 -10 25 -22 19 -41 -21z m-633 -868 c0 -43
-175 -213 -197 -192 -17 17 146 197 178 197 11 0 19 -2 19 -5z m-686 -87 c6
-22 6 -54 0 -80 -8 -39 -12 -43 -42 -46 -78 -8 -97 78 -34 151 10 11 26 17 41
15 21 -2 28 -11 35 -40z m-635 -32 c22 -26 30 -73 19 -118 -14 -58 -20 -62
-62 -48 -70 23 -80 102 -19 158 28 25 46 28 62 8z m441 -118 c0 -26 46 -69 93
-86 l47 -18 -38 -60 c-61 -94 -119 -133 -150 -102 -19 19 -14 124 10 204 21
67 38 95 38 62z m-591 -111 c18 -21 74 -47 102 -47 16 0 16 -4 -6 -42 -42 -75
-113 -138 -155 -138 -5 0 -16 7 -24 16 -25 24 -20 116 10 208 l27 79 15 -29
c8 -16 22 -37 31 -47z"/>
</g>
</svg>
